<?xml version="1.0" encoding="UTF-8"?>
<svg version="1.1" xmlns="http://www.w3.org/2000/svg" width="176" height="169">
<path d="M0 0 C4.71776095 3.16974564 8.83886549 6.60204824 12 11.34375 C14.36460212 11.63340017 14.36460212 11.63340017 17.0625 11.40625 C26.78225358 11.17814627 35.33330346 13.29409375 42.7578125 19.91015625 C48.83853966 26.49506431 51.93702905 34.40187465 52 43.34375 C51.80103838 46.05686306 51.44010023 48.6542486 51 51.34375 C51.5878125 51.6015625 52.175625 51.859375 52.78125 52.125 C59.0364291 55.56094345 63.00349844 62.06989218 65.34375 68.63671875 C67.2326424 76.4283999 66.98140456 85.24646361 63 92.34375 C56 101.34375 56 101.34375 52 103.34375 C52.02320313 103.94960937 52.04640625 104.55546875 52.0703125 105.1796875 C52.30106129 115.89302404 50.8824361 125.9017651 43.3984375 134.09765625 C38.16557436 138.86457952 32.06353869 142.36731965 25 143.34375 C22.87376138 143.21725226 20.74867968 143.07019202 18.625 142.90625 C13.86303978 142.79832128 13.86303978 142.79832128 9.80859375 144.98046875 C8.64953576 146.383266 7.53719656 147.82606958 6.4765625 149.3046875 C3.11603543 153.94541536 -1.66497853 155.82310915 -7 157.34375 C-17.26947874 158.55466359 -25.47028403 157.35778937 -34 151.34375 C-36.45399108 149.11158862 -38.09241403 147.09915195 -40 144.34375 C-40 143.68375 -40 143.02375 -40 142.34375 C-40.825 142.50875 -41.65 142.67375 -42.5 142.84375 C-52.27815053 144.24062865 -60.39291203 142.52094322 -68.8125 137.15625 C-74.71812752 132.5424785 -78.73567418 125.67683978 -80 118.34375 C-80.27015864 113.22533904 -80.45065496 108.29918736 -79 103.34375 C-79.680625 103.17875 -80.36125 103.01375 -81.0625 102.84375 C-86.472255 100.08132191 -89.83978561 95.31611446 -92.875 90.15625 C-95.52902224 81.16206352 -96.20190194 71.93272244 -92 63.34375 C-88.95959244 58.63294985 -85.72969385 54.44184515 -81 51.34375 C-80.34 51.34375 -79.68 51.34375 -79 51.34375 C-79.495 49.85875 -79.495 49.85875 -80 48.34375 C-80.80809389 37.99393206 -79.47831993 29.40736581 -72.859375 21.19921875 C-67.24945109 15.60108039 -59.93570837 11.88798518 -52 11.34375 C-47.97115663 11.48502746 -43.99918395 11.84300615 -40 12.34375 C-39.73316406 11.58191406 -39.46632812 10.82007813 -39.19140625 10.03515625 C-36.58628315 4.15014047 -30.5450727 0.41348853 -24.71875 -1.9609375 C-16.64606866 -4.02550256 -7.4577222 -3.95485268 0 0 Z M-41 50.34375 C-43.63504257 53.40379944 -44.00882651 54.84063882 -43.9375 58.90625 C-42.91018691 62.67306465 -42.13902486 64.07667649 -39 66.34375 C-35.4339293 67.78945434 -34.01991217 67.35049989 -30.3125 66.09375 C-26.8150163 64.5825708 -26.8150163 64.5825708 -25 61.34375 C-24.30873061 55.4180426 -24.30873061 55.4180426 -27.1875 50.40625 C-32.47129146 46.53146959 -35.49954215 46.75649488 -41 50.34375 Z M-4 56.34375 C-4 57.00375 -4 57.66375 -4 58.34375 C-4.66 58.34375 -5.32 58.34375 -6 58.34375 C-6 59.00375 -6 59.66375 -6 60.34375 C-6.5775 60.59125 -7.155 60.83875 -7.75 61.09375 C-10.32939979 62.52674988 -12.06121592 64.12799676 -14 66.34375 C-14 67.00375 -14 67.66375 -14 68.34375 C-14.66 68.34375 -15.32 68.34375 -16 68.34375 C-17.60059293 69.96467592 -17.60059293 69.96467592 -19.25 72.03125 C-22.27272634 75.59442222 -25.35890753 78.43087602 -29 81.34375 C-31.31418291 83.40542261 -31.31418291 83.40542261 -33 85.34375 C-33 86.00375 -33 86.66375 -33 87.34375 C-33.86625 87.6840625 -33.86625 87.6840625 -34.75 88.03125 C-37.69071898 89.7466694 -39.17275686 91.47236793 -41 94.34375 C-41.44749962 97.54017588 -41.59372152 99.38719866 -39.875 102.15625 C-36.9814392 103.98883851 -35.48060223 104.47509348 -32 104.34375 C-30.14591447 103.0903124 -30.14591447 103.0903124 -28.33178711 101.35766602 C-27.62794891 100.71636749 -26.92411072 100.07506897 -26.19894409 99.41433716 C-20.05703892 93.63094775 -14.0574631 87.70766667 -8.07055664 81.7644043 C-6.39128638 80.10180741 -4.7066536 78.44461028 -3.0168457 76.79272461 C-0.56284649 74.39334843 1.87442232 71.9780631 4.30859375 69.55859375 C5.06579208 68.82406479 5.82299042 68.08953583 6.60313416 67.33274841 C9.65601126 64.26734945 11.72819148 62.15750693 13.11352539 58.01000977 C13.23902546 55.10612235 13.23902546 55.10612235 10.875 52.46875 C8.24096194 50.26449117 8.24096194 50.26449117 5.625 49.65625 C1.60916081 50.70801741 -1.24667887 53.28097779 -4 56.34375 Z M-1 90.34375 C-3.63504257 93.40379944 -4.00882651 94.84063882 -3.9375 98.90625 C-2.91018691 102.67306465 -2.13902486 104.07667649 1 106.34375 C4.5660707 107.78945434 5.98008783 107.35049989 9.6875 106.09375 C13.1849837 104.5825708 13.1849837 104.5825708 15 101.34375 C15.69126939 95.4180426 15.69126939 95.4180426 12.8125 90.40625 C7.52870854 86.53146959 4.50045785 86.75649488 -1 90.34375 Z " fill="#050505" transform="translate(98,7.65625)"/>
<path d="M0 0 C0 3.74016583 -0.9341591 4.45276193 -3.375 7.1875 C-4.00148438 7.90292969 -4.62796875 8.61835937 -5.2734375 9.35546875 C-7 11 -7 11 -9 11 C-9.20625 11.556875 -9.4125 12.11375 -9.625 12.6875 C-11.55000774 15.92501302 -14.03850902 17.68231141 -17 20 C-17.66 19.67 -18.32 19.34 -19 19 C-12.73 12.73 -6.46 6.46 0 0 Z " fill="#565656" transform="translate(95,83)"/>
<path d="M0 0 C0.66 0.33 1.32 0.66 2 1 C-1.63 4.63 -5.26 8.26 -9 12 C-9 8.47601214 -8.44884893 7.98495633 -6.1875 5.4375 C-5.40439453 4.53837891 -5.40439453 4.53837891 -4.60546875 3.62109375 C-3 2 -3 2 0 0 Z " fill="#585858" transform="translate(17,59)"/>
<path d="M0 0 C0.66 0.33 1.32 0.66 2 1 C-1.3 4.3 -4.6 7.6 -8 11 C-8.33 10.34 -8.66 9.68 -9 9 C-8.06725891 7.87105124 -7.12859878 6.74699124 -6.1875 5.625 C-5.66542969 4.99851562 -5.14335938 4.37203125 -4.60546875 3.7265625 C-3 2 -3 2 0 0 Z " fill="#515151" transform="translate(67,9)"/>
<path d="M0 0 C0.99 0.33 1.98 0.66 3 1 C-0.465 3.97 -0.465 3.97 -4 7 C-4.66 6.67 -5.32 6.34 -6 6 C-4.02 4.02 -2.04 2.04 0 0 Z " fill="#454545" transform="translate(82,96)"/>
</svg>
