<?xml version="1.0" encoding="UTF-8"?>
<svg version="1.1" xmlns="http://www.w3.org/2000/svg" width="176" height="169">
<path d="M0 0 C18.49173203 15.56269814 29.68161873 34.87173525 31.85400391 59.09082031 C33.20808697 79.11675785 27.84649287 98.73254765 14.92578125 114.26953125 C12.71156398 116.77697253 10.43551833 119.20643585 8.125 121.625 C7.29742187 122.56472656 7.29742187 122.56472656 6.453125 123.5234375 C-1.52987058 132.2573089 -12.82474769 137.80658821 -23.875 141.625 C-24.79796875 141.9446875 -25.7209375 142.264375 -26.671875 142.59375 C-47.64855877 148.58708822 -70.34159173 145.02541055 -89.2421875 134.765625 C-94.24395963 131.90524467 -98.63572916 128.52054618 -102.875 124.625 C-103.58011719 123.98820313 -104.28523438 123.35140625 -105.01171875 122.6953125 C-119.10477727 109.32703985 -128.40281983 90.0557357 -129.11328125 70.5703125 C-129.56938164 46.9039964 -124.27187745 27.32321693 -107.875 9.625 C-106.88693359 8.53445312 -106.88693359 8.53445312 -105.87890625 7.421875 C-78.54209904 -21.40003039 -31.36801886 -23.31928291 0 0 Z M-73.75390625 27.33984375 C-74.50994141 27.69626953 -75.26597656 28.05269531 -76.04492188 28.41992188 C-76.83447266 28.79697266 -77.62402344 29.17402344 -78.4375 29.5625 C-79.23091797 29.93568359 -80.02433594 30.30886719 -80.84179688 30.69335938 C-84.61157923 32.278333 -84.61157923 32.278333 -87.875 34.625 C-89.33485585 51.16067496 -83.50422192 66.95160245 -73.3125 79.80859375 C-60.24519922 94.90718968 -44.27804926 102.76107246 -24.4375 104.375 C-22.58405788 104.47313653 -20.72998366 104.56243731 -18.875 104.625 C-17.36521482 101.69242967 -15.86889797 98.75319106 -14.375 95.8125 C-13.94574219 94.97912109 -13.51648438 94.14574219 -13.07421875 93.28710938 C-12.46513672 92.08344727 -12.46513672 92.08344727 -11.84375 90.85546875 C-11.46669922 90.11707764 -11.08964844 89.37868652 -10.70117188 88.61791992 C-9.68352428 86.52267915 -9.68352428 86.52267915 -9.875 83.625 C-11.56064149 81.9903342 -11.56064149 81.9903342 -13.8125 80.48828125 C-14.62460938 79.91142578 -15.43671875 79.33457031 -16.2734375 78.74023438 C-17.13195312 78.14533203 -17.99046875 77.55042969 -18.875 76.9375 C-19.73351562 76.33099609 -20.59203125 75.72449219 -21.4765625 75.09960938 C-23.60329312 73.59908277 -25.73611446 72.10812498 -27.875 70.625 C-28.9815941 71.56377926 -30.08678799 72.50420916 -31.19140625 73.4453125 C-32.11481812 74.23059326 -32.11481812 74.23059326 -33.05688477 75.03173828 C-35.44736585 77.1265791 -37.66179163 79.34472471 -39.875 81.625 C-49.3219915 79.26325213 -56.13707129 72.17824687 -61.875 64.625 C-63.42569201 61.99840651 -64.65191008 59.4279144 -65.875 56.625 C-62.245 52.995 -58.615 49.365 -54.875 45.625 C-56.87659583 40.62101044 -59.21082993 37.0845384 -62.375 32.8125 C-63.12330078 31.77319336 -63.12330078 31.77319336 -63.88671875 30.71289062 C-64.36753906 30.05869141 -64.84835938 29.40449219 -65.34375 28.73046875 C-66.00020508 27.83557739 -66.00020508 27.83557739 -66.66992188 26.92260742 C-67.06759766 26.49439697 -67.46527344 26.06618652 -67.875 25.625 C-70.28752704 25.625 -71.57523745 26.3097027 -73.75390625 27.33984375 Z " fill="#000000" transform="translate(137.875,18.375)"/>
</svg>
